P3
# Created by GIMP version 2.10.30 PNM plug-in
50 50
255
255
255
255
253
32
0
255
255
255
252
45
0
251
52
0
250
57
0
255
255
255
255
255
255
255
255
255
247
74
0
255
255
255
245
81
0
255
255
255
244
89
0
255
255
255
242
95
0
255
255
255
240
100
0
255
255
255
238
106
0
255
255
255
235
112
0
255
255
255
234
117
0
255
255
255
232
122
0
255
255
255
230
127
0
229
128
0
227
131
0
226
133
0
225
136
0
224
137
0
222
140
0
222
143
0
220
143
0
219
146
0
218
148
0
216
151
0
215
153
0
214
155
0
213
156
0
211
158
0
210
161
0
208
162
0
207
165
0
205
166
0
204
168
0
204
169
0
202
172
0
254
32
0
255
255
255
252
45
0
251
51
0
251
57
0
250
62
0
255
255
255
255
255
255
255
255
255
246
78
0
255
255
255
244
85
0
255
255
255
242
92
0
255
255
255
240
98
0
255
255
255
239
103
0
255
255
255
237
110
0
255
255
255
235
114
0
255
255
255
233
119
0
255
255
255
231
125
0
229
127
0
228
129
0
227
131
0
226
133
0
225
136
0
224
138
0
222
140
0
222
143
0
220
144
0
219
146
0
218
149
0
216
151
0
215
152
0
214
154
0
213
156
0
212
158
0
210
160
0
209
162
0
207
164
0
205
166
0
204
168
0
203
169
0
201
172
0
200
173
0
255
255
255
252
45
0
255
255
255
250
57
0
250
62
0
248
67
0
255
255
255
255
255
255
255
255
255
245
81
0
255
255
255
244
89
0
255
255
255
242
95
0
255
255
255
240
101
0
255
255
255
237
106
0
255
255
255
236
112
0
255
255
255
234
116
0
255
255
255
232
121
0
230
124
0
229
126
0
228
129
0
228
130
0
226
133
0
225
136
0
223
138
0
223
140
0
221
142
0
221
144
0
220
146
0
218
148
0
216
150
0
215
153
0
214
155
0
212
156
0
211
159
0
210
160
0
209
163
0
207
164
0
206
166
0
204
168
0
203
169
0
201
172
0
200
173
0
199
175
0
252
45
0
251
51
0
250
57
0
255
255
255
255
255
255
255
255
255
247
74
0
246
78
0
245
81
0
244
86
0
255
255
255
243
92
0
255
255
255
241
98
0
255
255
255
238
103
0
255
255
255
237
109
0
255
255
255
235
114
0
255
255
255
232
119
0
232
122
0
231
125
0
229
126
0
228
129
0
227
131
0
226
133
0
225
135
0
224
138
0
223
140
0
221
143
0
221
144
0
219
146
0
218
149
0
216
151
0
215
153
0
214
155
0
213
157
0
211
158
0
210
160
0
209
163
0
207
164
0
206
166
0
204
168
0
203
169
0
202
172
0
200
174
0
198
176
0
197
178
0
252
51
0
250
56
0
249
62
0
255
255
255
255
255
255
255
255
255
246
78
0
245
81
0
244
85
0
243
88
0
255
255
255
241
95
0
255
255
255
240
100
0
255
255
255
238
107
0
255
255
255
236
112
0
255
255
255
234
116
0
233
119
0
232
122
0
231
125
0
230
127
0
228
129
0
227
131
0
226
133
0
225
135
0
224
138
0
223
140
0
221
143
0
221
143
0
219
146
0
218
148
0
217
151
0
215
152
0
213
155
0
212
157
0
211
158
0
210
160
0
209
162
0
207
164
0
206
166
0
204
169
0
203
169
0
202
172
0
199
174
0
198
175
0
196
178
0
195
179
0
250
57
0
249
62
0
249
67
0
255
255
255
255
255
255
255
255
255
245
82
0
245
85
0
244
89
0
242
93
0
255
255
255
241
97
0
255
255
255
239
104
0
255
255
255
237
109
0
255
255
255
235
113
0
234
116
0
0
0
0
0
0
0
231
124
0
229
127
0
228
129
0
227
131
0
226
133
0
225
135
0
224
138
0
223
140
0
221
142
0
220
144
0
219
146
0
217
149
0
217
150
0
215
152
0
213
155
0
212
157
0
211
158
0
211
161
0
208
162
0
208
164
0
206
166
0
204
168
0
203
169
0
201
171
0
200
173
0
198
175
0
197
178
0
195
180
0
193
181
0
255
255
255
255
255
255
255
255
255
247
75
0
246
78
0
245
82
0
255
255
255
255
255
255
255
255
255
242
95
0
255
255
255
240
101
0
255
255
255
237
106
0
255
255
255
236
112
0
234
115
0
234
117
0
233
119
0
231
122
0
0
0
0
230
126
0
0
0
0
0
0
0
226
133
0
225
136
0
224
137
0
223
140
0
222
142
0
221
144
0
219
146
0
218
148
0
217
150
0
215
153
0
213
155
0
213
157
0
212
158
0
210
160
0
208
162
0
207
164
0
206
166
0
204
168
0
203
170
0
201
172
0
200
173
0
199
176
0
197
177
0
195
179
0
193
181
0
192
182
0
255
255
255
255
255
255
255
255
255
246
78
0
245
82
0
245
85
0
255
255
255
255
255
255
255
255
255
240
97
0
255
255
255
239
103
0
255
255
255
237
109
0
236
112
0
234
114
0
234
116
0
232
119
0
231
122
0
231
124
0
0
0
0
228
129
0
0
0
0
226
134
0
225
135
0
223
138
0
223
140
0
221
143
0
220
143
0
219
146
0
218
148
0
216
151
0
215
153
0
213
154
0
212
156
0
211
158
0
210
160
0
209
162
0
208
164
0
206
166
0
204
168
0
203
170
0
202
171
0
200
173
0
199
176
0
196
177
0
195
179
0
193
182
0
192
183
0
190
184
0
255
255
255
255
255
255
255
255
255
245
81
0
244
85
0
243
89
0
255
255
255
255
255
255
255
255
255
240
101
0
255
255
255
238
107
0
236
109
0
236
112
0
234
115
0
233
117
0
232
119
0
232
122
0
236
133
0
253
160
0
242
147
0
227
131
0
0
0
0
225
135
0
224
138
0
222
140
0
221
142
0
220
145
0
219
146
0
218
148
0
217
151
0
215
153
0
213
154
0
212
157
0
212
159
0
210
160
0
209
162
0
207
165
0
205
167
0
204
168
0
203
170
0
202
172
0
200
174
0
198
175
0
196
177
0
195
180
0
193
181
0
192
183
0
191
184
0
189
186
0
247
76
0
246
78
0
245
82
0
244
85
0
243
89
0
242
93
0
241
95
0
241
97
0
240
101
0
239
103
0
238
106
0
237
110
0
236
112
0
234
114
0
234
116
0
233
119
0
231
121
0
230
125
0
255
163
0
242
148
0
248
156
0
248
156
0
0
0
0
224
138
0
222
140
0
119
233
0
117
234
0
117
234
0
197
176
0
217
150
0
216
153
0
213
154
0
213
157
0
212
158
0
210
161
0
209
162
0
207
165
0
205
166
0
204
168
0
203
170
0
201
171
0
200
173
0
198
175
0
197
178
0
195
180
0
193
181
0
192
183
0
190
184
0
188
187
0
187
189
0
255
255
255
255
255
255
255
255
255
255
255
255
255
255
255
255
255
255
255
255
255
255
255
255
255
255
255
238
106
0
255
255
255
255
255
255
234
115
0
234
117
0
255
255
255
255
255
255
230
124
0
229
126
0
251
159
0
233
137
0
232
140
0
252
161
0
224
138
0
223
140
0
75
247
0
146
219
0
161
210
0
116
234
0
103
239
0
2
255
0
214
155
0
213
157
0
211
158
0
210
160
0
208
162
0
207
164
0
206
167
0
205
169
0
203
171
0
202
172
0
200
174
0
198
175
0
197
177
0
195
179
0
193
182
0
192
182
0
190
185
0
189
187
0
186
188
0
185
190
0
255
255
255
244
85
0
243
89
0
242
92
0
241
95
0
241
98
0
240
100
0
239
103
0
255
255
255
237
109
0
255
255
255
255
255
255
234
116
0
233
119
0
255
255
255
255
255
255
229
127
0
228
129
0
250
158
0
252
160
0
252
161
0
249
159
0
222
140
0
105
238
0
146
219
0
219
146
0
218
149
0
217
151
0
215
153
0
2
255
0
213
157
0
212
158
0
211
161
0
209
162
0
207
164
0
206
167
0
204
168
0
202
171
0
201
171
0
200
174
0
199
175
0
196
177
0
195
179
0
193
182
0
193
183
0
190
185
0
189
187
0
187
188
0
185
190
0
183
192
0
255
255
255
244
89
0
242
92
0
241
95
0
241
99
0
240
100
0
238
103
0
238
107
0
255
255
255
236
112
0
234
114
0
234
117
0
255
255
255
255
255
255
230
124
0
229
127
0
229
129
0
227
132
0
227
133
0
234
143
0
244
154
0
239
152
0
221
142
0
161
210
0
161
210
0
218
148
0
216
150
0
215
152
0
214
154
0
155
213
0
72
248
0
210
160
0
209
162
0
207
165
0
205
166
0
204
168
0
202
170
0
201
172
0
200
174
0
199
176
0
196
178
0
195
180
0
193
182
0
192
183
0
190
185
0
189
186
0
187
188
0
184
190
0
183
192
0
181
194
0
255
255
255
243
92
0
241
95
0
240
98
0
240
101
0
238
104
0
237
106
0
237
109
0
255
255
255
234
115
0
233
116
0
255
255
255
255
255
255
255
255
255
255
255
255
228
129
0
227
131
0
226
133
0
225
136
0
243
154
0
252
161
0
221
142
0
200
173
0
105
239
0
217
148
0
217
150
0
2
255
0
214
155
0
213
157
0
113
236
0
101
240
0
209
162
0
207
164
0
206
167
0
204
168
0
203
170
0
201
172
0
200
174
0
198
176
0
197
178
0
195
179
0
193
182
0
192
183
0
190
184
0
188
186
0
186
188
0
185
190
0
183
192
0
181
194
0
180
195
0
255
255
255
241
96
0
240
98
0
239
101
0
239
104
0
237
107
0
236
109
0
235
112
0
255
255
255
234
117
0
232
119
0
255
255
255
255
255
255
255
255
255
255
255
255
227
132
0
226
133
0
225
135
0
224
138
0
249
159
0
228
146
0
220
145
0
219
146
0
74
247
0
197
177
0
215
152
0
101
240
0
101
240
0
90
243
0
100
240
0
208
162
0
207
164
0
206
166
0
204
168
0
202
170
0
202
172
0
200
174
0
198
175
0
197
178
0
195
180
0
193
182
0
192
183
0
191
184
0
188
186
0
187
189
0
185
190
0
183
192
0
181
194
0
180
195
0
178
197
0
255
255
255
240
99
0
240
100
0
239
104
0
238
106
0
237
109
0
235
112
0
235
115
0
255
255
255
233
119
0
231
121
0
255
255
255
229
127
0
228
130
0
255
255
255
227
133
0
225
136
0
223
138
0
248
158
0
239
153
0
227
148
0
220
146
0
218
148
0
158
211
0
115
235
0
214
155
0
212
156
0
192
183
0
191
184
0
209
162
0
207
164
0
206
166
0
204
168
0
203
171
0
201
172
0
200
173
0
199
176
0
197
178
0
195
179
0
193
181
0
192
183
0
190
185
0
189
187
0
187
188
0
185
190
0
183
192
0
181
194
0
180
195
0
178
197
0
175
198
0
255
255
255
240
101
0
239
103
0
238
107
0
237
109
0
235
112
0
235
115
0
234
116
0
255
255
255
231
122
0
231
124
0
229
127
0
228
129
0
227
131
0
226
133
0
225
135
0
224
138
0
229
145
0
252
161
0
255
163
0
249
160
0
255
163
0
248
161
0
248
161
0
201
203
0
188
216
0
122
241
0
148
228
0
99
240
0
207
164
0
205
167
0
204
168
0
203
170
0
201
171
0
200
174
0
199
176
0
197
177
0
195
179
0
193
181
0
192
183
0
190
185
0
189
186
0
186
188
0
185
191
0
183
192
0
181
194
0
180
195
0
177
197
0
175
199
0
174
201
0
255
255
255
239
103
0
238
107
0
236
109
0
235
111
0
234
115
0
233
117
0
233
120
0
255
255
255
230
124
0
229
127
0
228
129
0
227
132
0
226
133
0
225
136
0
223
138
0
223
140
0
221
142
0
255
163
0
238
155
0
218
148
0
217
150
0
224
155
0
223
156
0
251
163
0
239
162
0
247
163
0
244
168
0
189
187
0
205
166
0
204
169
0
203
170
0
201
172
0
200
174
0
199
175
0
197
177
0
195
180
0
194
182
0
191
183
0
191
185
0
189
187
0
187
189
0
185
191
0
183
192
0
181
194
0
179
195
0
177
197
0
175
199
0
174
200
0
171
202
0
255
255
255
255
255
255
255
255
255
255
255
255
255
255
255
255
255
255
255
255
255
255
255
255
255
255
255
229
127
0
228
130
0
227
132
0
227
133
0
225
136
0
224
138
0
222
140
0
221
142
0
220
144
0
219
147
0
218
148
0
216
150
0
215
152
0
214
154
0
212
156
0
211
159
0
210
161
0
208
162
0
207
165
0
206
166
0
204
168
0
203
171
0
201
171
0
200
173
0
198
175
0
196
177
0
195
180
0
193
181
0
192
183
0
191
185
0
189
186
0
186
188
0
185
190
0
183
192
0
181
194
0
179
195
0
177
197
0
175
199
0
173
201
0
171
203
0
169
204
0
238
106
0
237
109
0
236
112
0
235
115
0
233
117
0
232
119
0
232
122
0
231
125
0
229
127
0
229
129
0
227
131
0
226
133
0
225
136
0
223
138
0
223
140
0
221
143
0
220
145
0
219
147
0
218
148
0
217
150
0
215
152
0
213
154
0
212
157
0
211
159
0
210
160
0
208
162
0
207
165
0
206
167
0
204
168
0
202
170
0
202
172
0
200
173
0
198
176
0
197
178
0
195
180
0
193
181
0
192
184
0
190
184
0
188
186
0
187
188
0
185
190
0
183
192
0
181
194
0
180
195
0
178
197
0
176
198
0
174
200
0
172
202
0
169
204
0
167
206
0
236
110
0
236
112
0
235
115
0
233
117
0
233
119
0
232
122
0
230
124
0
229
127
0
228
129
0
227
131
0
227
133
0
225
135
0
224
138
0
222
140
0
221
142
0
220
145
0
219
146
0
218
148
0
216
150
0
215
152
0
214
155
0
212
157
0
211
159
0
210
161
0
209
163
0
208
165
0
205
167
0
204
168
0
202
171
0
201
172
0
200
173
0
198
176
0
197
177
0
195
179
0
193
181
0
192
183
0
190
185
0
189
187
0
186
189
0
184
190
0
183
192
0
181
194
0
179
195
0
177
197
0
176
198
0
174
200
0
171
203
0
169
204
0
166
206
0
165
207
0
236
112
0
235
114
0
233
117
0
233
119
0
232
121
0
230
125
0
229
127
0
228
129
0
227
131
0
226
133
0
225
136
0
224
138
0
223
140
0
221
143
0
220
144
0
218
147
0
218
148
0
217
150
0
215
153
0
214
155
0
213
157
0
211
159
0
210
160
0
209
163
0
207
164
0
206
166
0
204
169
0
202
171
0
201
172
0
200
174
0
198
175
0
196
178
0
195
179
0
193
181
0
192
183
0
190
184
0
189
187
0
186
188
0
185
190
0
183
192
0
180
193
0
180
195
0
178
197
0
176
199
0
173
201
0
171
202
0
169
204
0
167
206
0
165
207
0
163
209
0
234
114
0
234
117
0
233
119
0
231
122
0
230
124
0
229
127
0
228
129
0
227
132
0
227
133
0
225
136
0
224
137
0
222
140
0
222
142
0
220
144
0
219
147
0
218
148
0
217
150
0
215
153
0
214
154
0
213
156
0
211
159
0
211
160
0
209
163
0
207
165
0
205
166
0
204
168
0
203
171
0
201
172
0
200
174
0
198
175
0
197
177
0
195
180
0
194
182
0
191
183
0
190
184
0
189
187
0
187
189
0
184
190
0
183
192
0
180
194
0
179
196
0
178
197
0
176
198
0
174
200
0
171
202
0
169
205
0
167
206
0
165
208
0
163
209
0
160
211
0
233
117
0
233
119
0
231
122
0
231
124
0
229
127
0
228
129
0
227
131
0
225
134
0
225
135
0
224
138
0
222
140
0
221
142
0
220
145
0
219
146
0
218
148
0
216
150
0
215
153
0
214
154
0
213
157
0
211
159
0
210
160
0
209
162
0
207
164
0
205
166
0
204
168
0
203
170
0
201
172
0
200
174
0
198
176
0
197
178
0
195
179
0
193
181
0
191
184
0
190
185
0
188
187
0
187
188
0
185
190
0
183
192
0
181
194
0
179
195
0
177
197
0
175
199
0
173
201
0
171
202
0
169
204
0
167
206
0
165
207
0
163
209
0
161
211
0
158
213
0
233
119
0
232
122
0
230
124
0
229
127
0
229
129
0
227
132
0
225
134
0
225
135
0
224
138
0
222
141
0
221
142
0
220
144
0
219
147
0
218
148
0
216
151
0
215
153
0
214
155
0
212
157
0
211
159
0
210
160
0
209
162
0
207
164
0
206
167
0
204
169
0
202
171
0
201
172
0
200
173
0
198
176
0
197
178
0
195
179
0
194
182
0
192
184
0
190
184
0
188
186
0
187
188
0
185
190
0
183
192
0
181
194
0
179
196
0
178
197
0
176
199
0
173
201
0
171
203
0
169
204
0
167
206
0
165
207
0
162
209
0
160
211
0
158
212
0
155
214
0
232
121
0
230
124
0
230
127
0
228
129
0
227
132
0
226
134
0
225
135
0
224
138
0
223
140
0
222
142
0
220
145
0
218
147
0
218
148
0
217
151
0
215
152
0
214
154
0
213
157
0
211
159
0
210
161
0
208
162
0
208
164
0
206
167
0
204
168
0
202
171
0
201
172
0
199
174
0
199
176
0
196
178
0
195
180
0
193
182
0
192
183
0
190
185
0
189
187
0
187
188
0
184
191
0
183
192
0
180
194
0
179
195
0
177
197
0
175
198
0
174
201
0
172
203
0
169
204
0
167
206
0
165
208
0
163
209
0
160
211
0
158
213
0
156
214
0
153
216
0
231
124
0
229
127
0
228
129
0
227
132
0
226
134
0
225
136
0
224
138
0
223
140
0
221
143
0
220
144
0
219
146
0
218
148
0
216
151
0
215
153
0
214
154
0
212
157
0
211
159
0
210
161
0
208
162
0
207
164
0
205
166
0
204
169
0
202
170
0
201
172
0
200
174
0
198
176
0
196
177
0
195
179
0
193
181
0
192
184
0
190
185
0
189
186
0
187
189
0
185
190
0
183
192
0
180
194
0
179
196
0
177
197
0
176
199
0
174
200
0
171
203
0
169
204
0
167
206
0
165
207
0
163
209
0
161
211
0
158
213
0
156
215
0
153
216
0
150
217
0
229
127
0
229
129
0
227
131
0
226
134
0
225
136
0
224
138
0
222
140
0
221
142
0
220
145
0
219
147
0
218
149
0
217
150
0
215
153
0
213
155
0
213
157
0
211
158
0
210
161
0
209
162
0
207
164
0
206
166
0
204
168
0
202
170
0
201
173
0
200
173
0
198
175
0
196
178
0
195
180
0
193
182
0
192
183
0
189
186
0
188
187
0
186
188
0
184
190
0
183
192
0
181
194
0
179
196
0
178
197
0
175
198
0
173
200
0
171
203
0
169
205
0
167
206
0
165
207
0
163
209
0
160
210
0
158
212
0
155
214
0
152
216
0
150
218
0
148
219
0
228
129
0
227
131
0
226
134
0
225
136
0
224
137
0
222
140
0
221
142
0
220
145
0
219
146
0
218
148
0
217
150
0
215
153
0
214
155
0
212
157
0
211
159
0
209
161
0
208
162
0
207
164
0
206
166
0
204
168
0
203
170
0
201
172
0
200
174
0
199
176
0
197
178
0
195
179
0
194
182
0
191
183
0
189
186
0
189
187
0
187
188
0
185
190
0
183
192
0
181
194
0
178
196
0
178
197
0
176
198
0
173
201
0
171
202
0
169
205
0
167
206
0
164
207
0
163
209
0
161
211
0
158
212
0
155
214
0
153
216
0
150
218
0
148
219
0
145
221
0
227
132
0
225
134
0
225
136
0
224
137
0
222
140
0
221
142
0
220
144
0
219
147
0
218
149
0
217
150
0
215
153
0
214
154
0
212
157
0
211
159
0
210
161
0
208
162
0
207
164
0
206
166
0
204
168
0
202
170
0
201
172
0
200
174
0
198
176
0
196
177
0
195
180
0
193
181
0
191
183
0
190
185
0
188
186
0
187
188
0
184
190
0
182
192
0
181
194
0
179
196
0
177
197
0
175
199
0
173
201
0
171
202
0
169
204
0
167
206
0
164
208
0
163
209
0
160
211
0
158
212
0
155
214
0
153
216
0
150
217
0
148
219
0
145
220
0
142
222
0
226
134
0
225
135
0
223
138
0
223
140
0
222
143
0
220
144
0
218
147
0
218
149
0
216
150
0
215
152
0
214
154
0
213
157
0
211
159
0
210
160
0
209
162
0
207
164
0
206
166
0
204
169
0
203
170
0
201
173
0
200
173
0
198
175
0
196
177
0
195
180
0
193
182
0
191
183
0
190
185
0
189
186
0
186
189
0
185
190
0
183
192
0
180
194
0
179
196
0
177
197
0
175
198
0
173
200
0
171
202
0
169
204
0
167
206
0
164
207
0
163
209
0
160
211
0
158
213
0
155
214
0
152
216
0
150
218
0
148
219
0
145
220
0
142
222
0
139
224
0
225
136
0
223
138
0
223
140
0
222
143
0
220
145
0
219
146
0
217
149
0
217
151
0
215
152
0
214
155
0
213
157
0
211
159
0
209
161
0
209
163
0
207
165
0
206
167
0
204
169
0
202
171
0
201
173
0
200
174
0
198
176
0
197
178
0
195
180
0
193
181
0
192
183
0
190
185
0
189
187
0
187
188
0
184
191
0
183
192
0
181
193
0
179
196
0
177
197
0
175
199
0
173
200
0
171
203
0
169
204
0
167
206
0
164
208
0
163
209
0
161
211
0
158
213
0
155
214
0
152
216
0
150
217
0
148
219
0
145
220
0
142
222
0
139
224
0
136
226
0
224
138
0
223
140
0
221
143
0
220
145
0
219
147
0
218
149
0
217
150
0
215
152
0
214
154
0
213
157
0
211
159
0
210
161
0
208
163
0
207
164
0
206
166
0
204
168
0
202
170
0
201
173
0
199
174
0
198
176
0
197
177
0
195
179
0
193
181
0
192
183
0
190
185
0
188
187
0
187
189
0
184
190
0
183
192
0
181
194
0
179
196
0
177
197
0
176
199
0
173
201
0
171
202
0
169
204
0
166
206
0
164
208
0
163
209
0
160
211
0
158
213
0
155
214
0
153
216
0
150
218
0
148
219
0
145
220
0
143
223
0
139
224
0
136
226
0
133
227
0
223
140
0
221
143
0
220
145
0
218
147
0
218
149
0
216
151
0
215
153
0
214
155
0
212
157
0
211
158
0
210
161
0
209
162
0
207
164
0
206
166
0
205
168
0
203
170
0
201
172
0
199
174
0
199
175
0
197
177
0
194
180
0
193
181
0
191
183
0
189
185
0
188
187
0
186
188
0
184
190
0
183
192
0
180
193
0
179
196
0
177
198
0
175
199
0
173
201
0
172
202
0
169
205
0
167
206
0
164
207
0
163
209
0
161
211
0
158
213
0
155
214
0
153
216
0
150
218
0
148
219
0
145
221
0
142
222
0
139
224
0
136
226
0
132
228
0
130
230
0
221
142
0
220
144
0
219
147
0
217
149
0
216
151
0
215
153
0
214
155
0
212
156
0
211
158
0
209
161
0
208
162
0
207
165
0
205
167
0
204
168
0
203
170
0
201
172
0
199
175
0
198
176
0
196
177
0
195
179
0
193
181
0
192
183
0
190
185
0
189
186
0
187
188
0
185
190
0
183
192
0
181
194
0
179
196
0
177
198
0
175
198
0
173
201
0
171
202
0
169
205
0
166
206
0
165
208
0
163
209
0
161
211
0
158
212
0
156
214
0
153
216
0
150
218
0
148
219
0
146
221
0
142
222
0
140
224
0
136
226
0
133
228
0
130
229
0
127
231
0
220
144
0
219
147
0
217
149
0
217
151
0
215
152
0
214
155
0
213
156
0
211
159
0
210
161
0
208
162
0
207
164
0
205
167
0
204
168
0
203
170
0
201
172
0
199
175
0
198
175
0
197
178
0
195
179
0
193
181
0
191
184
0
189
186
0
189
187
0
187
188
0
184
191
0
183
192
0
181
194
0
179
196
0
177
198
0
176
199
0
174
200
0
171
202
0
169
204
0
167
206
0
164
208
0
163
209
0
160
210
0
158
213
0
155
215
0
153
216
0
150
218
0
147
219
0
145
221
0
143
222
0
139
225
0
136
226
0
133
228
0
129
229
0
127
231
0
123
232
0
219
147
0
218
149
0
216
150
0
215
152
0
214
155
0
213
157
0
211
159
0
209
161
0
208
163
0
207
164
0
206
166
0
204
168
0
203
170
0
201
173
0
199
174
0
199
176
0
197
178
0
195
179
0
193
182
0
191
184
0
190
185
0
188
186
0
187
188
0
185
190
0
183
192
0
181
194
0
179
196
0
176
197
0
175
199
0
173
201
0
172
202
0
169
204
0
167
206
0
164
208
0
162
209
0
161
210
0
158
213
0
155
215
0
153
216
0
150
217
0
147
219
0
145
220
0
143
222
0
139
224
0
136
226
0
133
227
0
130
229
0
127
231
0
124
232
0
120
234
0
217
149
0
216
151
0
215
152
0
213
155
0
212
156
0
211
159
0
209
161
0
208
163
0
207
164
0
206
167
0
204
169
0
202
170
0
201
172
0
200
174
0
198
176
0
196
178
0
195
180
0
193
182
0
192
183
0
189
185
0
188
187
0
187
189
0
184
190
0
183
192
0
181
194
0
179
195
0
177
197
0
176
199
0
174
201
0
171
203
0
169
204
0
166
206
0
165
207
0
162
209
0
160
211
0
158
213
0
156
214
0
153
216
0
150
218
0
147
219
0
145
221
0
142
222
0
140
224
0
136
226
0
133
228
0
130
230
0
127
230
0
124
232
0
120
234
0
116
236
0
216
150
0
215
152
0
214
154
0
212
156
0
211
159
0
210
161
0
208
163
0
207
164
0
206
166
0
204
169
0
202
170
0
201
173
0
199
174
0
198
175
0
197
178
0
195
179
0
193
181
0
191
184
0
190
186
0
188
187
0
187
188
0
185
190
0
183
192
0
181
194
0
179
195
0
177
197
0
176
199
0
173
200
0
172
203
0
169
204
0
167
206
0
164
208
0
162
209
0
161
211
0
157
212
0
155
214
0
152
216
0
150
218
0
148
220
0
145
220
0
143
222
0
139
224
0
137
225
0
133
227
0
130
230
0
127
230
0
124
232
0
120
234
0
116
236
0
112
237
0
215
152
0
213
154
0
213
156
0
211
159
0
209
161
0
208
163
0
207
165
0
205
166
0
204
168
0
203
170
0
201
172
0
199
174
0
198
176
0
197
177
0
195
180
0
194
181
0
192
183
0
190
185
0
188
187
0
187
189
0
185
191
0
183
192
0
181
194
0
179
196
0
177
198
0
175
199
0
174
201
0
171
203
0
169
205
0
167
206
0
165
208
0
162
210
0
161
211
0
158
213
0
155
215
0
153
216
0
150
218
0
147
220
0
146
221
0
142
223
0
140
224
0
136
226
0
133
228
0
129
230
0
128
231
0
124
232
0
120
234
0
115
235
0
111
237
0
107
239
0
214
154
0
212
157
0
211
159
0
209
161
0
208
163
0
208
164
0
205
167
0
204
168
0
203
170
0
201
172
0
200
175
0
199
176
0
196
178
0
195
179
0
193
182
0
191
183
0
190
185
0
187
187
0
187
188
0
185
190
0
183
192
0
181
194
0
179
196
0
177
197
0
175
198
0
174
201
0
171
203
0
169
205
0
167
206
0
165
207
0
162
210
0
160
211
0
158
213
0
155
214
0
152
216
0
150
218
0
147
220
0
145
220
0
142
222
0
140
224
0
136
225
0
133
228
0
130
229
0
127
231
0
124
233
0
120
234
0
116
236
0
112
237
0
107
239
0
102
240
0
212
157
0
211
159
0
209
161
0
208
163
0
207
165
0
205
166
0
204
168
0
203
171
0
201
172
0
199
175
0
198
176
0
196
177
0
195
180
0
193
182
0
192
184
0
189
185
0
188
187
0
186
188
0
185
190
0
183
192
0
181
194
0
179
196
0
177
197
0
176
199
0
173
200
0
172
203
0
169
204
0
167
206
0
164
208
0
162
209
0
160
210
0
158
212
0
155
214
0
153
216
0
150
218
0
147
220
0
146
220
0
143
223
0
139
224
0
136
226
0
132
227
0
129
230
0
126
231
0
124
233
0
120
234
0
116
236
0
112
237
0
107
239
0
102
240
0
99
241
0
211
159
0
210
161
0
208
163
0
207
164
0
206
166
0
204
168
0
203
170
0
201
172
0
199
175
0
197
176
0
196
178
0
195
180
0
194
181
0
191
184
0
190
185
0
188
187
0
186
188
0
184
190
0
183
192
0
181
194
0
179
196
0
177
198
0
176
198
0
173
200
0
171
202
0
169
204
0
167
206
0
164
207
0
162
210
0
161
211
0
158
212
0
156
214
0
153
216
0
150
217
0
147
220
0
145
220
0
142
222
0
139
224
0
136
226
0
133
227
0
130
229
0
126
231
0
124
232
0
120
234
0
116
235
0
111
237
0
107
239
0
103
241
0
99
242
0
94
244
0
210
161
0
208
163
0
207
164
0
205
166
0
204
169
0
203
171
0
201
172
0
199
174
0
198
176
0
197
178
0
195
179
0
194
182
0
192
183
0
190
185
0
188
187
0
187
189
0
185
190
0
183
192
0
181
194
0
179
195
0
176
197
0
176
198
0
173
201
0
172
203
0
169
204
0
167
206
0
165
208
0
162
210
0
160
211
0
158
212
0
155
214
0
153
216
0
150
218
0
147
219
0
146
221
0
142
222
0
139
224
0
136
226
0
133
227
0
129
230
0
126
231
0
124
232
0
120
233
0
116
235
0
112
237
0
107
239
0
103
241
0
99
242
0
94
243
0
88
245
0
208
163
0
207
164
0
206
166
0
204
169
0
202
170
0
201
172
0
200
174
0
198
177
0
197
177
0
195
179
0
193
181
0
191
183
0
190
185
0
188
187
0
187
188
0
185
190
0
183
192
0
181
194
0
179
196
0
177
197
0
174
200
0
174
201
0
171
202
0
169
204
0
167
206
0
164
208
0
162
210
0
161
210
0
158
212
0
155
214
0
152
216
0
150
218
0
147
219
0
145
220
0
142
223
0
140
224
0
136
226
0
133
227
0
129
230
0
125
231
0
124
232
0
120
234
0
116
235
0
111
237
0
107
239
0
102
241
0
99
242
0
94
244
0
88
245
0
82
247
0
207
165
0
205
167
0
205
169
0
203
170
0
201
173
0
199
174
0
197
177
0
196
178
0
195
180
0
193
181
0
192
184
0
190
185
0
187
187
0
187
189
0
184
190
0
183
192
0
181
194
0
179
196
0
176
197
0
175
200
0
173
201
0
171
202
0
169
204
0
167
206
0
164
208
0
163
209
0
160
210
0
158
213
0
155
214
0
153
216
0
150
218
0
147
220
0
145
222
0
143
222
0
139
224
0
136
226
0
133
228
0
129
229
0
126
231
0
123
232
0
120
234
0
116
235
0
112
237
0
107
239
0
102
241
0
99
242
0
93
244
0
88
245
0
82
246
0
75
248
0
205
166
0
205
169
0
202
170
0
201
172
0
199
174
0
198
177
0
197
178
0
195
180
0
193
181
0
191
183
0
189
185
0
187
187
0
187
189
0
185
191
0
183
192
0
181
194
0
179
196
0
177
197
0
175
200
0
173
201
0
171
202
0
169
204
0
167
206
0
164
207
0
162
210
0
161
211
0
158
213
0
156
214
0
153
216
0
150
218
0
148
220
0
144
221
0
143
223
0
139
224
0
136
226
0
133
228
0
129
229
0
126
231
0
124
233
0
120
233
0
116
235
0
111
237
0
107
239
0
103
241
0
99
242
0
94
243
0
89
245
0
82
247
0
75
249
0
67
250
0
204
168
0
202
170
0
201
172
0
199
175
0
197
176
0
197
177
0
195
179
0
193
182
0
191
183
0
190
185
0
188
187
0
186
189
0
184
190
0
183
192
0
181
194
0
179
196
0
177
198
0
175
199
0
173
201
0
172
202
0
169
204
0
167
206
0
164
208
0
162
209
0
160
211
0
158
212
0
156
215
0
153
216
0
150
218
0
148
219
0
144
221
0
142
222
0
139
224
0
137
226
0
133
227
0
130
229
0
126
231
0
123
232
0
120
234
0
116
236
0
111
237
0
107
239
0
103
241
0
97
243
0
94
244
0
88
245
0
82
247
0
76
248
0
68
250
0
58
251
0
203
171
0
201
173
0
199
174
0
198
176
0
197
177
0
195
180
0
193
181
0
191
183
0
189
185
0
188
187
0
186
189
0
184
190
0
183
192
0
181
194
0
179
195
0
177
198
0
175
200
0
174
200
0
171
202
0
169
204
0
167
206
0
165
208
0
163
210
0
161
211
0
158
213
0
156
214
0
153
216
0
150
218
0
147
219
0
144
222
0
142
222
0
140
225
0
137
226
0
133
227
0
130
230
0
126
231
0
124
232
0
120
234
0
115
235
0
112
237
0
107
239
0
102
240
0
97
242
0
94
243
0
88
245
0
82
247
0
76
249
0
67
250
0
58
251
0
52
253
0
201
173
0
200
174
0
197
176
0
197
177
0
194
180
0
193
181
0
191
183
0
190
186
0
188
187
0
187
189
0
185
191
0
183
192
0
181
194
0
179
195
0
177
197
0
175
200
0
173
201
0
171
202
0
169
204
0
167
206
0
165
208
0
162
209
0
161
211
0
158
212
0
155
214
0
152
216
0
150
217
0
147
219
0
145
221
0
142
223
0
139
224
0
136
226
0
133
227
0
129
229
0
126
231
0
123
232
0
119
234
0
116
235
0
112
238
0
107
239
0
102
241
0
98
242
0
93
243
0
89
245
0
82
247
0
75
249
0
67
250
0
58
251
0
51
252
0
38
254
0
