# Blender v2.93.4 OBJ File: ''
# www.blender.org
mtllib Red_Barrel.mtl
o wTube
v 0.804003 0.000000 0.000000
v 0.568516 0.000000 -0.568516
v 0.000000 0.000000 -0.804003
v -0.568516 0.000000 -0.568516
v -0.804003 0.000000 -0.000000
v -0.568516 0.000000 0.568516
v 0.000000 0.000000 0.804003
v 0.568516 0.000000 0.568516
v 0.712114 2.189667 0.000000
v 0.503540 2.189667 -0.503540
v 0.000000 2.189667 -0.712113
v -0.503541 2.189667 -0.503540
v -0.712114 2.189667 -0.000000
v -0.503541 2.189667 0.503540
v 0.000000 2.189667 0.712113
v 0.503541 2.189667 0.503540
v 0.000000 0.000000 0.000000
v -0.568516 2.189667 -0.568516
v -0.804003 2.189667 -0.000000
v -0.568516 2.189667 0.568516
v 0.000000 2.189667 -0.804003
v 0.000000 2.189667 0.804003
v 0.568516 2.189667 0.568516
v 0.804003 2.189667 0.000000
v 0.568516 2.189667 -0.568516
v 0.712114 2.099442 0.000000
v 0.000000 2.099442 0.000000
v 0.503540 2.099442 -0.503540
v 0.000000 2.099442 -0.712113
v -0.503541 2.099442 -0.503540
v -0.712114 2.099442 -0.000000
v -0.503541 2.099442 0.503540
v 0.000000 2.099442 0.712113
v 0.503541 2.099442 0.503540
vt 0.031640 0.092410
vt 0.082911 0.092410
vt 0.082911 0.777066
vt 0.031640 0.777066
vt 0.132072 0.092410
vt 0.132072 0.777066
vt 0.186385 0.092410
vt 0.186385 0.777066
vt 0.241408 0.092410
vt 0.241408 0.777066
vt 0.296392 0.092410
vt 0.296392 0.777066
vt 0.350627 0.092410
vt 0.350627 0.777066
vt 0.403571 0.092410
vt 0.403571 0.777066
vt 0.455181 0.092410
vt 0.455181 0.777066
vt 0.659089 0.406481
vt 0.720224 0.258889
vt 0.781359 0.406481
vt 0.241408 0.805753
vt 0.296392 0.805753
vt 0.296392 0.828923
vt 0.241408 0.828923
vt 0.867816 0.320023
vt 0.350627 0.805753
vt 0.350627 0.829465
vt 0.867816 0.197754
vt 0.403571 0.805753
vt 0.455181 0.805753
vt 0.455181 0.828922
vt 0.403571 0.828923
vt 0.781359 0.111297
vt 0.082911 0.805753
vt 0.132072 0.805753
vt 0.132072 0.828923
vt 0.082911 0.828923
vt 0.659089 0.111297
vt 0.186385 0.805753
vt 0.186385 0.828923
vt 0.572632 0.197754
vt 0.572632 0.320023
vt 0.031640 0.805753
vt 0.031640 0.828923
vt 0.834175 0.974547
vt 0.630398 0.974547
vt 0.732287 0.728566
vt 0.486306 0.830455
vt 0.486306 0.626678
vt 0.630398 0.482586
vt 0.834175 0.482586
vt 0.978268 0.626678
vt 0.978268 0.830455
vn 1.0000 0.0000 -0.0000
vn 0.7071 0.0000 -0.7071
vn -0.0000 0.0000 -1.0000
vn -0.7071 0.0000 -0.7071
vn -1.0000 0.0000 -0.0000
vn -0.7071 0.0000 0.7071
vn 0.0000 0.0000 1.0000
vn 0.7071 0.0000 0.7071
vn 0.0000 -1.0000 0.0000
vn 0.0000 1.0000 0.0000
usemtl Material.001
s 1
f 1/1/1 2/2/2 25/3/2 24/4/1
f 2/2/2 3/5/3 21/6/3 25/3/2
f 3/5/3 4/7/4 18/8/4 21/6/3
f 4/7/4 5/9/5 19/10/5 18/8/4
f 5/9/5 6/11/6 20/12/6 19/10/5
f 6/11/6 7/13/7 22/14/7 20/12/6
f 7/13/7 8/15/8 23/16/8 22/14/7
f 8/15/8 1/17/1 24/18/1 23/16/8
f 1/19/9 17/20/9 2/21/9
f 13/22/1 14/23/2 32/24/2 31/25/1
f 2/21/9 17/20/9 3/26/9
f 14/23/2 15/27/3 33/28/3 32/24/2
f 3/26/9 17/20/9 4/29/9
f 16/30/4 9/31/5 26/32/5 34/33/4
f 4/29/9 17/20/9 5/34/9
f 10/35/6 11/36/7 29/37/7 28/38/6
f 5/34/9 17/20/9 6/39/9
f 12/40/8 13/22/1 31/25/1 30/41/8
f 6/39/9 17/20/9 7/42/9
f 11/36/7 12/40/8 30/41/8 29/37/7
f 7/42/9 17/20/9 8/43/9
f 15/27/3 16/30/4 34/33/4 33/28/3
f 8/43/9 17/20/9 1/19/9
f 9/44/5 10/35/6 28/38/6 26/45/5
f 13/22/10 12/40/10 18/8/10 19/10/10
f 14/23/10 13/22/10 19/10/10 20/12/10
f 12/40/10 11/36/10 21/6/10 18/8/10
f 15/27/10 14/23/10 20/12/10 22/14/10
f 16/30/10 15/27/10 22/14/10 23/16/10
f 9/31/10 16/30/10 23/16/10 24/18/10
f 10/35/10 9/44/10 24/4/10 25/3/10
f 11/36/10 10/35/10 25/3/10 21/6/10
f 26/46/10 28/47/10 27/48/10
f 28/47/10 29/49/10 27/48/10
f 29/49/10 30/50/10 27/48/10
f 30/50/10 31/51/10 27/48/10
f 31/51/10 32/52/10 27/48/10
f 32/52/10 33/53/10 27/48/10
f 33/53/10 34/54/10 27/48/10
f 34/54/10 26/46/10 27/48/10
